<svg width="25" height="24" viewBox="0 0 25 24" fill="none" xmlns="http://www.w3.org/2000/svg">
<path d="M22.714 10.0415H21.875V10H12.5V14H18.387C17.5281 16.3285 15.2203 18 12.5 18C9.04842 18 6.24998 15.3135 6.24998 12C6.24998 8.6865 9.04842 6 12.5 6C14.0932 6 15.5427 6.577 16.6463 7.5195L19.5927 4.691C17.7323 3.0265 15.2437 2 12.5 2C6.74738 2 2.08331 6.4775 2.08331 12C2.08331 17.5225 6.74738 22 12.5 22C18.2526 22 22.9166 17.5225 22.9166 12C22.9166 11.3295 22.8448 10.675 22.714 10.0415Z" fill="#FFC107"/>
<path d="M3.28436 7.3455L6.70676 9.755C7.6328 7.554 9.87551 6 12.5 6C14.0932 6 15.5427 6.577 16.6463 7.5195L19.5927 4.691C17.7323 3.0265 15.2437 2 12.5 2C8.49895 2 5.02915 4.1685 3.28436 7.3455Z" fill="#FF3D00"/>
<path d="M12.5 22.0001C15.1906 22.0001 17.6354 21.0116 19.4839 19.4041L16.2599 16.7851C15.1791 17.5746 13.8581 18.0015 12.5 18.0001C9.79062 18.0001 7.4901 16.3416 6.62344 14.0271L3.22656 16.5396C4.95052 19.7781 8.45156 22.0001 12.5 22.0001Z" fill="#4CAF50"/>
<path d="M22.7141 10.0415H21.875V10H12.5V14H18.387C17.9762 15.1082 17.2361 16.0766 16.2583 16.7855L16.2599 16.7845L19.4839 19.4035C19.2557 19.6025 22.9167 17 22.9167 12C22.9167 11.3295 22.8448 10.675 22.7141 10.0415Z" fill="#1976D2"/>
</svg>
