<svg width="430" height="90" viewBox="0 0 430 90" fill="none" xmlns="http://www.w3.org/2000/svg">
<path d="M61.3862 18.3058L91.7612 43.0558C93.8874 44.7883 92.3822 47.75 89.375 47.75H86V64.25C86 66.4381 84.9333 68.5365 83.0345 70.0837C81.1357 71.6308 78.5604 72.5 75.875 72.5H72.5V53.25C72.5002 51.1457 71.5134 49.1209 69.7417 47.5898C67.97 46.0588 65.5472 45.1372 62.969 45.0138L62.375 45H55.625C52.9397 45 50.3644 45.8692 48.4656 47.4164C46.5668 48.9636 45.5 51.062 45.5 53.25V72.5H42.125C39.4397 72.5 36.8644 71.6308 34.9656 70.0837C33.0668 68.5365 32 66.4381 32 64.25V47.75H28.625C25.6213 47.75 24.1127 44.7883 26.2389 43.0558L56.6139 18.3058C57.2468 17.7902 58.1051 17.5006 59 17.5006C59.895 17.5006 60.7533 17.7902 61.3862 18.3058ZM62.375 50.5C63.2701 50.5 64.1286 50.7898 64.7615 51.3055C65.3945 51.8212 65.75 52.5207 65.75 53.25V72.5H52.25V53.25C52.2501 52.5765 52.5536 51.9263 53.103 51.423C53.6523 50.9197 54.4092 50.5981 55.2302 50.5193L55.625 50.5H62.375Z" fill="white"/>
<path d="M115.58 58L114.8 42.46L130.64 25H146.06L128.3 44.56L120.44 52.6L115.58 58ZM102.92 67V25H116.84V67H102.92ZM130.52 67L118.16 50.68L127.34 40.96L146.9 67H130.52ZM148.799 67V25H169.019C172.939 25 176.319 25.64 179.159 26.92C182.039 28.2 184.259 30.04 185.819 32.44C187.379 34.8 188.159 37.6 188.159 40.84C188.159 44.08 187.379 46.88 185.819 49.24C184.259 51.6 182.039 53.44 179.159 54.76C176.319 56.04 172.939 56.68 169.019 56.68H156.659L162.959 50.62V67H148.799ZM162.959 52.18L156.659 45.76H168.119C170.079 45.76 171.519 45.32 172.439 44.44C173.399 43.56 173.879 42.36 173.879 40.84C173.879 39.32 173.399 38.12 172.439 37.24C171.519 36.36 170.079 35.92 168.119 35.92H156.659L162.959 29.5V52.18ZM186.133 67L204.493 25H218.413L236.773 67H222.133L208.573 31.72H214.093L200.533 67H186.133ZM197.053 59.68L200.653 49.48H219.973L223.573 59.68H197.053ZM239.033 67V25H250.673L267.473 52.42H261.353L277.673 25H289.313L289.433 67H276.533L276.413 44.44H278.453L267.293 63.22H261.053L249.413 44.44H251.933V67H239.033ZM291.719 67L310.079 25H323.999L342.359 67H327.719L314.159 31.72H319.679L306.119 67H291.719ZM302.639 59.68L306.239 49.48H325.559L329.159 59.68H302.639ZM344.619 67V25H356.259L377.619 50.56H372.219V25H386.019V67H374.379L353.019 41.44H358.419V67H344.619Z" fill="white"/>
</svg>
